<?xml version="1.0" standalone="no"?>
<!DOCTYPE svg PUBLIC "-//W3C//DTD SVG 20010904//EN"
 "http://www.w3.org/TR/2001/REC-SVG-20010904/DTD/svg10.dtd">
<svg version="1.0" xmlns="http://www.w3.org/2000/svg"
 width="90.000000pt" height="90.000000pt" viewBox="0 0 90.000000 90.000000"
 preserveAspectRatio="xMidYMid meet">
<metadata>
Created by potrace 1.14, written by Peter Selinger 2001-2017
</metadata>
<g transform="translate(0.000000,90.000000) scale(0.100000,-0.100000)"
fill="#000000" stroke="none">
<path d="M390 887 c-90 -11 -180 -57 -248 -126 -63 -63 -93 -116 -117 -206
-56 -217 65 -443 279 -521 133 -48 330 -22 418 55 l41 37 -27 17 c-26 18 -28
17 -58 -8 -17 -14 -35 -24 -40 -23 -6 2 -27 43 -47 90 -20 48 -39 89 -42 92
-2 2 -24 -43 -48 -100 -24 -58 -47 -101 -51 -97 -4 4 -24 50 -45 101 -21 50
-41 92 -45 92 -4 0 -22 -36 -40 -80 -18 -44 -37 -83 -42 -86 -14 -9 -87 46
-124 94 -79 104 -100 249 -53 367 l24 60 3 -57 3 -58 64 0 65 0 0 49 0 49 47
-2 47 -1 46 -77 c25 -42 48 -79 51 -83 4 -3 28 33 55 80 l48 86 45 -3 46 -3
-1 -48 -1 -47 68 0 67 0 -3 51 c-4 66 13 61 38 -12 26 -73 25 -167 -2 -247
-22 -66 -18 -92 15 -92 32 0 72 129 69 225 -7 237 -177 417 -415 439 -14 1
-54 -2 -90 -7z m217 -91 c34 -16 70 -37 79 -47 17 -19 11 -19 -236 -19 -247 0
-252 0 -229 18 77 59 145 81 244 78 63 -2 94 -9 142 -30z"/>
</g>
</svg>
